<?xml version="1.0" standalone="no"?><!DOCTYPE svg PUBLIC "-//W3C//DTD SVG 1.1//EN" "http://www.w3.org/Graphics/SVG/1.1/DTD/svg11.dtd"><svg t="1585294307717" class="icon" viewBox="0 0 1024 1024" version="1.1" xmlns="http://www.w3.org/2000/svg" p-id="83555" xmlns:xlink="http://www.w3.org/1999/xlink" width="200" height="200"><defs><style type="text/css"></style></defs><path d="M600.243846 905.737107c-135.012493 100.734387-275.732811 20.251562-275.73281 20.251562s147.474993 126.700005 473.649772 73.964937c43.81815-7.084931 88.028868-26.052856 147.387755-126.930561 19.659594-33.3995 31.112631-65.758381 36.315725-95.549987-208.983661-5.439881-381.620441 128.264049-381.620442 128.264049" fill="#6DBBFF" p-id="83556"></path><path d="M913.663257 621.691809c-97.924093-10.381262-198.65848-3.115625-601.60849 146.434374 0 0-77.635143 38.6836-113.982024-20.507044 0 0 71.397662-74.912087-4.411725-157.08358 0 0-60.237493 42.060937-33.754681 126.700005 0 0-69.584368-30.115631-126.700006 36.353113 0 0 58.67345 60.754687 140.203124 14.537506 0 0 87.237499 113.720312 151.107812 157.862486 0 0 140.720318 80.482825 275.732811-20.251562 0 0 172.63678-133.697699 381.626672-128.264049h0.037388c-0.006231 0 29.666981-145.393755-68.250881-155.781249z m-219.726336 200.571473a31.343187 31.343187 0 1 1 0-62.698837 31.343187 31.343187 0 1 1 0 62.698837z" fill="#3088FE" p-id="83557"></path><path d="M693.936921 790.913864m-13.216481 0a13.216481 13.216481 0 1 0 26.432962 0 13.216481 13.216481 0 1 0-26.432962 0Z" fill="" p-id="83558"></path><path d="M655.340559 645.158696c-1.663744-10.705287-13.11055-20.077087 1.046849-28.059319 14.163631-7.988462 29.704369 10.225481 15.646669 14.070163-14.051469 3.83845-16.693519 13.989156-16.693518 13.989156zM549.91404 557.958584s-25.641594-19.466425-66.848849-2.04385c-41.194793 17.428806-38.297262-56.000243 11.010618-63.645987 49.320343-7.645744 39.493662 36.702062 55.838231 65.689837z m64.45605 77.772231s-14.275794-10.842375-37.213025-1.140319c-22.943462 9.702056-21.3358-31.174944 6.119088-35.437118 27.461119-4.255944 21.990081 20.432269 31.093937 36.577437z m20.307644-74.737612c-3.452112-22.201944-27.16825-41.612287 2.168475-58.156256 29.36165-16.543969 61.558518 21.192481 32.421193 29.156019-29.131094 7.963537-34.589669 29.000237-34.589668 29.000237z" fill="#3088FE" p-id="83559"></path><path d="M155.519537 100.385437c-13.185325 15.870994-31.879075 48.697218-20.725138 75.186262 11.153937 26.489044 3.078237 67.652681-2.959844 82.289887s-26.457887 69.04225 9.52135 94.584143c35.973006 25.548125 59.352656-7.539812 78.557369-23.304875 19.210944-15.765062 50.336037-30.969312 63.029093-25.809837 12.705519 5.153244 16.014312 25.884612 15.858531 37.960775-0.155781 12.076162-7.907456 52.398581 6.119088 70.749612 14.020312 18.3448 44.042475 19.802912 74.83108 2.735518s18.39465-48.790687 4.143782-74.494593c-14.244637-25.703906-39.506125-46.777993-45.307419-55.726068-5.813756-8.948075 33.530356-16.170094 57.769919-22.251794 24.252025-6.087931 49.656831-37.294031 27.454887-61.284343-22.195712-23.990312-48.485356-7.215787-55.937931 0.997-7.458806 8.206556-27.479812 37.125787-52.766225 22.426268s-16.880456-56.941162-43.201256-50.535437c-26.327031 6.405725-22.656825 32.564512-14.512581 57.265187s-9.135012 41.568668-19.310643 47.214181c-10.188094 5.645512-30.626594 12.543506-44.229413-11.995156-13.60905-24.538662 0.990769-49.426275 22.351494-83.448899 21.354494-34.016394 41.431581-82.750999 8.543044-103.731618s-56.043862 5.302794-69.229187 21.173787zM630.209927 358.951154c2.374106-15.659131 12.593356-31.087706 3.919457-53.252262-8.667669-22.170787-40.590362-34.5959-60.243725-31.293337-19.665825 3.2901-24.121169 1.040619-41.014087 10.574431-16.880456 9.527581-25.778681 21.528969-31.972544 43.867999s-2.156012 45.456968 0 54.299113c2.156012 8.835912 2.480037 29.299337 19.827838 39.705524 17.354031 10.406187 54.548362 19.217175 81.274193 12.069932 26.725831-7.159706 32.813762-34.888769 32.128325-46.167331-0.672975-11.278562-6.293562-14.138706-3.919457-29.804069z m-39.686831 10.132012c-0.062312 3.676437-2.274406 10.474731-7.739212 12.531044s-14.518812 0-18.488119 0-10.979462-7.246944-13.447037-14.088856 0.903531-15.378725 2.467575-19.154862c1.582737-3.782369 4.262175-14.412881 10.979462-16.818144 6.717287-2.399031 12.244406-4.810525 18.488119-3.894531 6.256175 0.909762 11.733444 2.567275 12.936075 12.057468 1.202631 9.490194-4.505194 11.1664-5.259175 16.232407s0.118394 9.4715 0.062312 13.135474zM761.022558 105.071337c11.739675-3.670206 39.443812 8.92315 52.074556 15.758831 12.624512 6.835681 35.54305 10.113319 46.048937 5.352644 10.505887-4.754444 38.421887-1.084237 40.297494 25.17425 0.965844 13.584125-17.609512 53.426737-13.322413 76.407587 4.2871 22.974619 7.271869 49.426275-4.941381 91.755155-12.219481 42.32265-60.399506 51.831537-73.790462 37.456044-13.384725-14.375494-69.777537-8.979231-82.433206-4.642281-43.251106 14.836606-33.623825-66.836387-19.447731-75.479131 9.153706-5.5832 41.387962-23.348494 68.936318 0.903531 27.554587 24.258256 47.295187 8.349875 50.360962 0.442419 3.333719-8.5742-8.611587-28.676212-22.320337-25.192944-18.033237 4.573737-37.499662-9.645975-39.605825-19.865225-4.374337-21.142631 6.891762-39.549744 38.228719-21.123937 31.336956 18.432037 35.673906 1.507962 39.904925-6.972769 4.249712-8.480731 15.447269-47.588056-18.3448-37.431118-18.519275 5.570737-44.347806 12.649437-66.15095 8.22525-16.107781-3.271406-19.404112-63.284575 4.505194-70.768306z" fill="#6DBBFF" p-id="83560"></path></svg>