<?xml version="1.0" standalone="no"?><!DOCTYPE svg PUBLIC "-//W3C//DTD SVG 1.1//EN" "http://www.w3.org/Graphics/SVG/1.1/DTD/svg11.dtd"><svg t="1585293591708" class="icon" viewBox="0 0 1024 1024" version="1.1" xmlns="http://www.w3.org/2000/svg" p-id="41147" xmlns:xlink="http://www.w3.org/1999/xlink" width="200" height="200"><defs><style type="text/css"></style></defs><path d="M600.250078 905.737107c-135.012493 100.734387-275.732811 20.251562-275.732811 20.251562s147.474993 126.700005 473.649772 73.964937c43.811918-7.091162 88.028868-26.052856 147.381524-126.930561 19.659594-33.393269 31.112631-65.758381 36.315725-95.549987-208.97743-5.439881-381.61421 128.264049-381.61421 128.264049" fill="#6DBBFF" p-id="41148"></path><path d="M913.657026 621.691809c-97.924093-10.381262-198.65848-3.115625-601.602259 146.434374 0 0-77.635143 38.6836-113.982024-20.507044 0 0 71.397662-74.905856-4.411725-157.08358 0 0-60.237493 42.060937-33.754681 126.700005 0 0-69.584368-30.115631-126.700006 36.353113 0 0 58.67345 60.754687 140.203124 14.537506 0 0 87.237499 113.720312 151.107812 157.862486 0 0 140.720318 80.482825 275.732811-20.251562 0 0 172.63678-133.697699 381.626672-128.264049h0.037388s29.666981-145.393755-68.257112-155.781249z m-219.720105 200.571473a31.343187 31.343187 0 1 1 0-62.692605 31.343187 31.343187 0 1 1 0 62.692605z" fill="#3088FE" p-id="41149"></path><path d="M693.936921 790.913864m-13.216481 0a13.216481 13.216481 0 1 0 26.432962 0 13.216481 13.216481 0 1 0-26.432962 0Z" fill="" p-id="41150"></path><path d="M655.340559 645.158696c-1.669975-10.705287-13.11055-20.077087 1.046849-28.053087 14.1574-7.994694 29.704369 10.225481 15.646669 14.070162-14.051469 3.832219-16.693519 13.982925-16.693518 13.982925z m-105.43275-87.200112s-25.635362-19.460194-66.848849-2.04385c-41.188562 17.422575-38.291031-56.000243 11.016849-63.645987 49.326575-7.645744 39.487431 36.702062 55.832 65.689837z m64.462281 77.772231s-14.275794-10.836144-37.213025-1.140319c-22.949694 9.702056-21.3358-31.181175 6.112856-35.44335 27.46735-4.255944 21.990081 20.4385 31.100169 36.583669z m20.307644-74.737612c-3.458344-22.201944-27.162019-41.612287 2.168475-58.156256 29.367881-16.543969 61.558518 21.192481 32.421193 29.16225-29.131094 7.957306-34.589669 28.994006-34.589668 28.994006z" fill="#3088FE" p-id="41151"></path><path d="M644.610346 285.621805c2.374106-20.126937 12.593356-39.967237 3.919456-68.456513-8.667669-28.501737-40.590362-44.472431-60.243724-40.235181-19.665825 4.23725-24.121169 1.339719-41.014088 13.596588-16.880456 12.250637-25.778681 27.672981-31.972543 56.392812-6.193862 28.7136-2.156012 58.442893 0 69.808693 2.156012 11.3658 2.480037 37.667906 19.827837 51.0464 17.354031 13.384725 54.548362 24.713137 81.274193 15.515812 26.725831-9.203556 32.819994-44.852537 32.128325-59.352655-0.666744-14.500119-6.293562-18.176556-3.919456-38.315956z m-39.686831 13.029543c-0.062312 4.723287-2.274406 13.465731-7.739212 16.107781-5.464806 2.64205-14.518812 0-18.488119 0s-10.979462-9.315719-13.447037-18.114243c-2.467575-8.792294 0.909762-19.771756 2.467575-24.6259 1.582737-4.866606 4.262175-18.531737 10.979462-21.622438 6.717287-3.084469 12.244406-6.187631 18.488119-5.009924 6.256175 1.171475 11.739675 3.296331 12.936075 15.497118 1.202631 12.200787-4.505194 14.3568-5.259175 20.868456s0.118394 12.188325 0.062312 16.89915zM923.975976 191.903805c6.393262-26.17125 23.946694-50.678756 15.827375-89.667687-8.088162-38.988931-51.227106-65.222493-79.872162-62.810999-28.688675 2.405262-34.614594-2.131087-60.524131 11.297256-25.922 13.428344-40.908156 32.333956-54.049863 69.210493-13.116781 36.876537-11.81445 76.737843-10.443574 92.072949 1.377106 15.335106-2.0937 50.093018 20.650362 70.53775 22.7316 20.457194 74.083331 41.412887 113.576993 33.611362 39.487431-7.813987 53.495281-53.862925 54.679218-73.092562 1.233787-19.223406-6.23125-24.97485 0.155782-51.158562z m-58.542594 10.7676c-0.7976 6.218787-5.265406 17.391419-13.440806 19.996081-8.187862 2.604662-20.700212-2.349181-26.358187-2.991s-14.263331-14.063931-16.475425-26.065318c-2.205862-11.988925 4.243481-25.928231 7.209556-32.078475 2.984769-6.162706 8.842144-23.747294 18.874456-26.738294 10.044775-2.984769 18.388419-6.187631 27.124631-3.626587 8.742444 2.567275 16.238637 6.249944 16.126475 22.538431-0.105931 16.288487-8.561737 18.207712-10.611819 26.675981-2.050081 8.468269-1.651281 16.076625-2.448881 22.289181zM89.960556 183.180055c1.869375-38.421887 65.016862-52.872156 119.09788-61.608368 54.08725-8.736212 85.368124-21.7346 102.099031-33.019394s25.130631 15.4535 26.663518 27.149556c1.526656 11.696056-10.829912 50.018243-70.662374 57.907006-59.832462 7.894994-93.973481 5.514656-98.011331 37.150712-1.750981 13.764831 33.536587 55.595212 57.545594 46.429044s80.233575-30.639056 105.04018-31.897769c41.144943-2.075006 119.153962 30.720062 94.571681 128.874712-11.633744 46.466431-124.662387 134.370674-198.228524 121.627768-79.124412-13.714981 1.64505-79.946937 16.276025-77.036943 11.191325 2.224556 101.251581-30.788606 105.407824-59.982012 4.498962-31.586206-12.605819-52.834768-39.468737-55.28365-21.423037-1.950381-53.320806 40.02955-63.714531 49.108481-9.3718 8.187862-48.672293 23.161556-67.995399-0.417494-10.991925-13.40965-17.6469-41.020318-40.185331-68.537518-22.5322-27.510969-49.189487-65.072943-48.435506-80.464131z" fill="#6DBBFF" p-id="41152"></path></svg>